<svg width="315" height="262" viewBox="0 0 315 262" fill="none" xmlns="http://www.w3.org/2000/svg">
<path d="M8.05 137.18V129.82C8.05 81.75 35.42 51.62 74.29 51.62C113.39 51.62 140.76 81.75 140.76 129.82V137.18C140.76 186.17 113.39 215.38 74.29 215.38C35.42 215.38 8.05 186.17 8.05 137.18ZM107.64 136.03V130.97C107.64 97.85 94.07 79.68 74.29 79.68C54.74 79.68 41.17 97.85 41.17 130.97V136.03C41.17 169.38 54.74 187.32 74.29 187.32C94.07 187.32 107.64 169.38 107.64 136.03ZM186.871 67.72V53H219.301V214H186.181V109.81C183.651 110.5 180.891 110.73 177.441 110.73H150.531V83.36H174.451C183.651 83.36 186.871 77.15 186.871 67.72Z" fill="url(#paint0_linear_541_256)"/>
<g filter="url(#filter0_d_541_256)">
<path d="M166.176 155H156.256L172.64 110.2H184.16L200.416 155H190.112L186.656 145.208H169.632L166.176 155ZM178.08 120.44L172.192 137.464H184.032L178.08 120.44ZM224.588 138.552V122.104H233.612V155H225.612L224.78 151.032C222.668 153.592 219.788 155.384 215.116 155.384C208.332 155.384 202.06 151.992 202.06 140.344V122.104H211.084V139.128C211.084 145.016 213.004 147.896 217.484 147.896C221.964 147.896 224.588 144.632 224.588 138.552ZM263.758 126.2V110.2H272.782V155H264.91L264.014 150.456C261.838 153.272 258.638 155.384 253.902 155.384C245.07 155.384 238.606 148.92 238.606 138.488C238.606 128.312 245.07 121.72 253.838 121.72C258.382 121.72 261.646 123.512 263.758 126.2ZM255.886 148.024C260.814 148.024 263.886 144.184 263.886 138.616C263.886 132.984 260.814 129.08 255.886 129.08C250.958 129.08 247.822 132.92 247.822 138.552C247.822 144.184 250.958 148.024 255.886 148.024ZM283.618 118.584C280.674 118.584 278.37 116.408 278.37 113.528C278.37 110.584 280.674 108.408 283.618 108.408C286.562 108.408 288.866 110.584 288.866 113.528C288.866 116.408 286.562 118.584 283.618 118.584ZM279.074 155V122.104H288.162V155H279.074ZM296.754 145.592V129.72H291.314V122.104H296.754V112.888H305.778V122.104H313.33V129.72H305.778V144.12C305.778 146.424 306.674 147.384 309.042 147.384H313.522V155H306.162C299.89 155 296.754 151.864 296.754 145.592Z" fill="black"/>
</g>
<defs>
<filter id="filter0_d_541_256" x="156.256" y="108.408" width="157.267" height="54.9766" filterUnits="userSpaceOnUse" color-interpolation-filters="sRGB">
<feFlood flood-opacity="0" result="BackgroundImageFix"/>
<feColorMatrix in="SourceAlpha" type="matrix" values="0 0 0 0 0 0 0 0 0 0 0 0 0 0 0 0 0 0 127 0" result="hardAlpha"/>
<feOffset dy="8"/>
<feComposite in2="hardAlpha" operator="out"/>
<feColorMatrix type="matrix" values="0 0 0 0 0 0 0 0 0 0 0 0 0 0 0 0 0 0 0.25 0"/>
<feBlend mode="normal" in2="BackgroundImageFix" result="effect1_dropShadow_541_256"/>
<feBlend mode="normal" in="SourceGraphic" in2="effect1_dropShadow_541_256" result="shape"/>
</filter>
<linearGradient id="paint0_linear_541_256" x1="2.82076e-07" y1="34.0959" x2="300.301" y2="279.665" gradientUnits="userSpaceOnUse">
<stop offset="0.25" stop-color="#E1E1E1"/>
<stop offset="0.2501" stop-color="#0548DB"/>
</linearGradient>
</defs>
</svg>
