<svg width="458" height="262" viewBox="0 0 458 262" fill="none" xmlns="http://www.w3.org/2000/svg">
<path d="M188.05 137.18V129.82C188.05 81.75 215.42 51.62 254.29 51.62C293.39 51.62 320.76 81.75 320.76 129.82V137.18C320.76 186.17 293.39 215.38 254.29 215.38C215.42 215.38 188.05 186.17 188.05 137.18ZM287.64 136.03V130.97C287.64 97.85 274.07 79.68 254.29 79.68C234.74 79.68 221.17 97.85 221.17 130.97V136.03C221.17 169.38 234.74 187.32 254.29 187.32C274.07 187.32 287.64 169.38 287.64 136.03ZM333.521 214V188.47L394.701 137.87C408.731 126.37 417.471 116.71 417.471 103.6C417.471 87.73 407.121 79.45 392.401 79.45C376.991 79.45 366.411 90.03 366.411 107.51V110.04H333.061V105.44C333.061 75.08 355.831 51.62 392.631 51.62C430.351 51.62 450.821 72.09 450.821 102.22C450.821 125.91 437.941 140.4 417.701 156.73L381.591 186.17H451.741V214H333.521Z" fill="url(#paint0_linear_541_257)"/>
<g filter="url(#filter0_d_541_257)">
<path d="M3.84 155V110.2H16.448L28.864 143.096L40.896 110.2H53.248V155H44.096V124.984L32.448 155H24.64L12.992 124.984V155H3.84ZM91.5585 147.384H92.5825V155H87.9745C83.3025 155 81.8305 152.76 81.8945 149.624C79.5905 153.272 76.2625 155.384 71.1425 155.384C64.0385 155.384 58.9185 151.992 58.9185 145.72C58.9185 138.744 64.1665 134.776 74.0225 134.776H80.5505V133.176C80.5505 130.232 78.4385 128.312 74.6625 128.312C71.1425 128.312 68.7745 129.912 68.3905 132.344H59.6865C60.3265 125.944 66.2145 121.72 74.9185 121.72C84.1345 121.72 89.4465 125.816 89.4465 133.688V145.336C89.4465 147.064 90.1505 147.384 91.5585 147.384ZM80.5505 141.432V140.792H73.9585C70.1825 140.792 68.0065 142.328 68.0065 145.08C68.0065 147.384 69.8625 148.856 72.8705 148.856C77.6065 148.856 80.4865 145.912 80.5505 141.432ZM120.077 126.52L120.973 122.104H128.845V167.8H119.821V150.776C117.645 153.464 114.445 155.384 109.901 155.384C101.133 155.384 94.6685 149.048 94.6685 138.616C94.6685 128.44 101.133 121.656 109.965 121.72C114.637 121.72 117.965 123.704 120.077 126.52ZM111.949 148.024C116.877 148.024 119.949 144.12 119.949 138.552C119.949 132.92 116.877 129.08 111.949 129.08C107.021 129.08 103.885 132.92 103.885 138.488C103.885 144.12 107.021 148.024 111.949 148.024ZM157.088 138.552V122.104H166.112V155H158.112L157.28 151.032C155.168 153.592 152.288 155.384 147.616 155.384C140.832 155.384 134.56 151.992 134.56 140.344V122.104H143.584V139.128C143.584 145.016 145.504 147.896 149.984 147.896C154.464 147.896 157.088 144.632 157.088 138.552ZM188.642 155.384C177.698 155.384 171.106 148.792 171.106 138.616C171.106 128.376 177.826 121.72 188.002 121.72C197.858 121.72 204.514 127.864 204.642 137.528C204.642 138.488 204.578 139.576 204.386 140.6H180.514V141.048C180.706 145.72 183.714 148.536 188.258 148.536C191.906 148.536 194.466 146.936 195.234 143.864H204.13C203.106 150.264 197.41 155.384 188.642 155.384ZM180.706 134.712H195.554C194.914 130.68 192.162 128.44 188.066 128.44C184.162 128.44 181.218 130.808 180.706 134.712ZM211.817 145.592V129.72H206.377V122.104H211.817V112.888H220.841V122.104H228.393V129.72H220.841V144.12C220.841 146.424 221.737 147.384 224.105 147.384H228.585V155H221.225C214.953 155 211.817 151.864 211.817 145.592ZM235.879 145.592V129.72H230.439V122.104H235.879V112.888H244.903V122.104H252.455V129.72H244.903V144.12C244.903 146.424 245.799 147.384 248.167 147.384H252.647V155H245.287C239.015 155 235.879 151.864 235.879 145.592ZM287.996 147.384H289.02V155H284.412C279.74 155 278.268 152.76 278.332 149.624C276.028 153.272 272.7 155.384 267.58 155.384C260.476 155.384 255.356 151.992 255.356 145.72C255.356 138.744 260.604 134.776 270.46 134.776H276.988V133.176C276.988 130.232 274.876 128.312 271.1 128.312C267.58 128.312 265.212 129.912 264.828 132.344H256.124C256.764 125.944 262.652 121.72 271.356 121.72C280.572 121.72 285.884 125.816 285.884 133.688V145.336C285.884 147.064 286.588 147.384 287.996 147.384ZM276.988 141.432V140.792H270.396C266.62 140.792 264.444 142.328 264.444 145.08C264.444 147.384 266.3 148.856 269.308 148.856C274.044 148.856 276.924 145.912 276.988 141.432ZM316.703 126.648L317.471 122.104H325.407V154.04C325.407 162.168 320.415 168.184 307.807 168.184C298.655 168.184 292.383 164.024 291.935 156.408H301.023C301.855 159.544 304.351 161.336 308.511 161.336C313.567 161.336 316.575 158.84 316.575 153.72V150.264C314.399 153.016 311.135 154.808 306.527 154.808C297.695 154.872 291.231 148.408 291.231 138.232C291.231 128.184 297.695 121.656 306.463 121.656C311.199 121.656 314.527 123.768 316.703 126.648ZM308.511 147.576C313.439 147.576 316.511 143.8 316.511 138.36C316.511 132.856 313.439 128.952 308.511 128.952C303.583 128.952 300.447 132.792 300.447 138.296C300.447 143.8 303.583 147.576 308.511 147.576ZM347.955 155.384C337.01 155.384 330.419 148.792 330.419 138.616C330.419 128.376 337.139 121.72 347.315 121.72C357.171 121.72 363.826 127.864 363.955 137.528C363.955 138.488 363.891 139.576 363.699 140.6H339.827V141.048C340.019 145.72 343.027 148.536 347.571 148.536C351.219 148.536 353.779 146.936 354.547 143.864H363.443C362.419 150.264 356.723 155.384 347.955 155.384ZM340.019 134.712H354.867C354.227 130.68 351.475 128.44 347.378 128.44C343.475 128.44 340.531 130.808 340.019 134.712Z" fill="black"/>
</g>
<defs>
<filter id="filter0_d_541_257" x="3.83984" y="110.199" width="360.114" height="65.9844" filterUnits="userSpaceOnUse" color-interpolation-filters="sRGB">
<feFlood flood-opacity="0" result="BackgroundImageFix"/>
<feColorMatrix in="SourceAlpha" type="matrix" values="0 0 0 0 0 0 0 0 0 0 0 0 0 0 0 0 0 0 127 0" result="hardAlpha"/>
<feOffset dy="8"/>
<feComposite in2="hardAlpha" operator="out"/>
<feColorMatrix type="matrix" values="0 0 0 0 0 0 0 0 0 0 0 0 0 0 0 0 0 0 0.25 0"/>
<feBlend mode="normal" in2="BackgroundImageFix" result="effect1_dropShadow_541_257"/>
<feBlend mode="normal" in="SourceGraphic" in2="effect1_dropShadow_541_257" result="shape"/>
</filter>
<linearGradient id="paint0_linear_541_257" x1="180" y1="26.0206" x2="498.627" y2="250.139" gradientUnits="userSpaceOnUse">
<stop offset="0.6349" stop-color="#FA8456"/>
<stop offset="0.635" stop-color="#E1E1E1"/>
</linearGradient>
</defs>
</svg>
