<svg width="421" height="262" viewBox="0 0 421 262" fill="none" xmlns="http://www.w3.org/2000/svg">
<path d="M8.05 137.18V129.82C8.05 81.75 35.42 51.62 74.29 51.62C113.39 51.62 140.76 81.75 140.76 129.82V137.18C140.76 186.17 113.39 215.38 74.29 215.38C35.42 215.38 8.05 186.17 8.05 137.18ZM107.64 136.03V130.97C107.64 97.85 94.07 79.68 74.29 79.68C54.74 79.68 41.17 97.85 41.17 130.97V136.03C41.17 169.38 54.74 187.32 74.29 187.32C94.07 187.32 107.64 169.38 107.64 136.03ZM243.938 130.28C261.188 133.73 275.218 145 275.218 168.46C275.218 196.29 251.298 215.38 213.348 215.38C175.398 215.38 151.248 196.06 151.248 161.56H184.138C184.598 179.73 197.478 189.39 214.958 189.39C229.908 189.39 241.638 180.88 241.638 166.39C241.638 153.74 232.208 145.69 213.578 145.69H197.708V119.24H211.738C229.448 119.24 238.418 110.27 238.418 97.62C238.418 84.51 227.378 77.61 213.578 77.61C197.938 77.61 186.898 87.27 186.438 102.22H154.008C154.468 72.09 178.848 51.62 214.038 51.62C250.378 51.62 271.998 68.64 271.998 95.09C271.998 114.64 259.808 126.14 243.938 130.28Z" fill="url(#paint0_linear_541_258)"/>
<g filter="url(#filter0_d_541_258)">
<path d="M196.52 146.672V121.2H206.12V147.184C206.12 154.288 208.744 158.128 214.888 158.128C221.096 158.128 223.72 154.288 223.72 147.184V121.2H233.32V146.672C233.32 159.408 226.984 166.384 214.888 166.384C202.856 166.384 196.52 159.408 196.52 146.672ZM240.653 166V121.2H250.253V166H240.653ZM289.715 119.664C292.19 119.664 294.387 120.048 296.307 120.816C298.227 121.584 299.742 122.715 300.851 124.208C301.96 125.659 302.515 127.451 302.515 129.584C302.515 132.528 301.64 135.003 299.891 137.008C298.142 139.013 295.966 140.763 293.363 142.256L302.259 150.896C303.112 149.445 303.859 147.931 304.499 146.352C305.139 144.731 305.672 143.109 306.099 141.488H316.019C315.379 143.877 314.44 146.437 313.203 149.168C311.966 151.899 310.387 154.459 308.467 156.848L317.875 166H306.099L302.515 162.48C301.576 163.12 300.595 163.696 299.571 164.208C298.547 164.72 297.48 165.168 296.371 165.552C295.262 165.893 294.088 166.149 292.851 166.32C291.614 166.533 290.334 166.64 289.011 166.64C285.555 166.64 282.59 166.107 280.115 165.04C277.64 163.931 275.742 162.395 274.419 160.432C273.096 158.469 272.435 156.208 272.435 153.648C272.435 151.472 272.755 149.616 273.395 148.08C274.078 146.501 275.038 145.136 276.275 143.984C277.555 142.789 279.07 141.701 280.819 140.72C279.71 139.44 278.814 138.245 278.131 137.136C277.491 135.984 277.022 134.853 276.723 133.744C276.467 132.635 276.339 131.461 276.339 130.224C276.339 128.048 276.894 126.171 278.003 124.592C279.155 123.013 280.734 121.797 282.739 120.944C284.787 120.091 287.112 119.664 289.715 119.664ZM286.387 146.416C285.576 147.013 284.872 147.632 284.275 148.272C283.72 148.912 283.272 149.595 282.931 150.32C282.632 151.045 282.483 151.856 282.483 152.752C282.483 154.587 283.166 156.037 284.531 157.104C285.896 158.128 287.603 158.64 289.651 158.64C291.016 158.64 292.296 158.469 293.491 158.128C294.686 157.787 295.774 157.317 296.755 156.72L286.387 146.416ZM289.651 127.024C288.584 127.024 287.56 127.301 286.579 127.856C285.64 128.368 285.171 129.371 285.171 130.864C285.171 131.931 285.427 132.955 285.939 133.936C286.494 134.917 287.219 135.92 288.115 136.944C289.907 135.963 291.272 134.981 292.211 134C293.192 133.019 293.683 131.888 293.683 130.608C293.683 129.328 293.256 128.411 292.403 127.856C291.55 127.301 290.632 127.024 289.651 127.024ZM337.27 146.672V121.2H346.87V147.184C346.87 154.288 349.494 158.128 355.638 158.128C361.846 158.128 364.47 154.288 364.47 147.184V121.2H374.07V146.672C374.07 159.408 367.734 166.384 355.638 166.384C343.606 166.384 337.27 159.408 337.27 146.672ZM378.203 166L392.795 143.088L378.907 121.2H390.299L399.003 135.408L408.027 121.2H418.779L404.891 142.96L419.483 166H408.027L398.619 150.64L388.891 166H378.203Z" fill="black"/>
</g>
<defs>
<filter id="filter0_d_541_258" x="196.52" y="119.664" width="222.963" height="54.9766" filterUnits="userSpaceOnUse" color-interpolation-filters="sRGB">
<feFlood flood-opacity="0" result="BackgroundImageFix"/>
<feColorMatrix in="SourceAlpha" type="matrix" values="0 0 0 0 0 0 0 0 0 0 0 0 0 0 0 0 0 0 127 0" result="hardAlpha"/>
<feOffset dy="8"/>
<feComposite in2="hardAlpha" operator="out"/>
<feColorMatrix type="matrix" values="0 0 0 0 0 0 0 0 0 0 0 0 0 0 0 0 0 0 0.25 0"/>
<feBlend mode="normal" in2="BackgroundImageFix" result="effect1_dropShadow_541_258"/>
<feBlend mode="normal" in="SourceGraphic" in2="effect1_dropShadow_541_258" result="shape"/>
</filter>
<linearGradient id="paint0_linear_541_258" x1="-8.5873e-06" y1="18.8425" x2="290.309" y2="213.41" gradientUnits="userSpaceOnUse">
<stop offset="0.363702" stop-color="#E1E1E1"/>
<stop offset="0.363802" stop-color="#725494"/>
</linearGradient>
</defs>
</svg>
