<svg width="435" height="262" viewBox="0 0 435 262" fill="none" xmlns="http://www.w3.org/2000/svg">
<path d="M154.05 137.18V129.82C154.05 81.75 181.42 51.62 220.29 51.62C259.39 51.62 286.76 81.75 286.76 129.82V137.18C286.76 186.17 259.39 215.38 220.29 215.38C181.42 215.38 154.05 186.17 154.05 137.18ZM253.64 136.03V130.97C253.64 97.85 240.07 79.68 220.29 79.68C200.74 79.68 187.17 97.85 187.17 130.97V136.03C187.17 169.38 200.74 187.32 220.29 187.32C240.07 187.32 253.64 169.38 253.64 136.03ZM297.911 179.5V152.13L368.981 53H409.231V151.9H431.541V179.5H409.231V214H376.801V179.5H297.911ZM376.801 85.89L329.651 151.9H376.801V85.89Z" fill="url(#paint0_linear_541_259)"/>
<g filter="url(#filter0_d_541_259)">
<path d="M2.88 142V108.4H16.56C23.952 108.4 28.896 112.768 28.896 119.584C28.896 123.904 26.64 127.36 23.136 129.04L29.76 142H21.792L16.128 130.72H10.08V142H2.88ZM15.984 114.4H10.08V124.72H15.984C19.392 124.72 21.552 122.704 21.552 119.584C21.552 116.416 19.392 114.4 15.984 114.4ZM45.1534 115.312C47.5854 115.312 49.6654 115.776 51.3934 116.704C53.1534 117.632 54.5134 118.976 55.4734 120.736C56.4334 122.496 56.9134 124.656 56.9134 127.216V130.672H40.0174C40.0814 132.688 40.6734 134.272 41.7934 135.424C42.9454 136.576 44.5294 137.152 46.5454 137.152C48.2414 137.152 49.7774 136.992 51.1534 136.672C52.5294 136.32 53.9534 135.792 55.4254 135.088V140.608C54.1454 141.248 52.7854 141.712 51.3454 142C49.9374 142.32 48.2254 142.48 46.2094 142.48C43.5854 142.48 41.2654 142 39.2494 141.04C37.2334 140.048 35.6494 138.56 34.4974 136.576C33.3454 134.592 32.7694 132.096 32.7694 129.088C32.7694 126.016 33.2814 123.472 34.3054 121.456C35.3614 119.408 36.8174 117.872 38.6734 116.848C40.5294 115.824 42.6894 115.312 45.1534 115.312ZM45.2014 120.4C43.8254 120.4 42.6734 120.848 41.7454 121.744C40.8494 122.64 40.3214 124.032 40.1614 125.92H50.1934C50.1934 124.864 50.0014 123.92 49.6174 123.088C49.2654 122.256 48.7214 121.6 47.9854 121.12C47.2494 120.64 46.3214 120.4 45.2014 120.4ZM54.9454 105.712C54.4974 106.16 53.9054 106.704 53.1694 107.344C52.4334 107.984 51.6334 108.656 50.7694 109.36C49.9374 110.064 49.1054 110.736 48.2734 111.376C47.4734 111.984 46.7694 112.496 46.1614 112.912H41.4094V112.288C41.9214 111.68 42.5134 110.976 43.1854 110.176C43.8894 109.344 44.5774 108.496 45.2494 107.632C45.9214 106.736 46.4814 105.936 46.9294 105.232H54.9454V105.712ZM59.0168 123.04V117.328H63.0968V115.504C63.0968 110.944 65.5448 108.4 70.5368 108.4H76.0568V114.16H71.7368C70.3928 114.16 69.7208 114.784 69.7208 116.176V117.328H76.0568V123.04H69.8648V142H63.0968V123.04H59.0168ZM90.8096 115.312C93.2416 115.312 95.3216 115.776 97.0496 116.704C98.8096 117.632 100.17 118.976 101.13 120.736C102.09 122.496 102.57 124.656 102.57 127.216V130.672H85.6736C85.7376 132.688 86.3296 134.272 87.4496 135.424C88.6016 136.576 90.1856 137.152 92.2016 137.152C93.8976 137.152 95.4336 136.992 96.8096 136.672C98.1856 136.32 99.6096 135.792 101.082 135.088V140.608C99.8016 141.248 98.4416 141.712 97.0016 142C95.5936 142.32 93.8816 142.48 91.8656 142.48C89.2416 142.48 86.9216 142 84.9056 141.04C82.8896 140.048 81.3056 138.56 80.1536 136.576C79.0016 134.592 78.4256 132.096 78.4256 129.088C78.4256 126.016 78.9376 123.472 79.9616 121.456C81.0176 119.408 82.4736 117.872 84.3296 116.848C86.1856 115.824 88.3456 115.312 90.8096 115.312ZM90.8576 120.4C89.4816 120.4 88.3296 120.848 87.4016 121.744C86.5056 122.64 85.9776 124.032 85.8176 125.92H95.8496C95.8496 124.864 95.6576 123.92 95.2736 123.088C94.9216 122.256 94.3776 121.6 93.6416 121.12C92.9056 120.64 91.9776 120.4 90.8576 120.4ZM100.602 105.712C100.154 106.16 99.5616 106.704 98.8256 107.344C98.0896 107.984 97.2896 108.656 96.4256 109.36C95.5936 110.064 94.7616 110.736 93.9296 111.376C93.1296 111.984 92.4256 112.496 91.8176 112.912H87.0656V112.288C87.5776 111.68 88.1696 110.976 88.8416 110.176C89.5456 109.344 90.2336 108.496 90.9056 107.632C91.5776 106.736 92.1376 105.936 92.5856 105.232H100.602V105.712ZM120.849 117.328H122.001V123.472H119.313C115.281 123.472 113.745 126.16 113.745 129.904V142H106.977V117.328H113.121L113.745 121.024C115.089 118.816 117.009 117.328 120.849 117.328ZM136.419 142.288C128.211 142.288 123.267 137.344 123.267 129.712C123.267 122.032 128.307 117.04 135.939 117.04C143.331 117.04 148.323 121.648 148.419 128.896C148.419 129.616 148.371 130.432 148.227 131.2H130.323V131.536C130.467 135.04 132.723 137.152 136.131 137.152C138.867 137.152 140.787 135.952 141.363 133.648H148.035C147.267 138.448 142.995 142.288 136.419 142.288ZM130.467 126.784H141.603C141.123 123.76 139.059 122.08 135.987 122.08C133.059 122.08 130.851 123.856 130.467 126.784ZM166.278 117.04C171.606 117.04 176.166 119.872 176.166 128.32V142H169.398V128.992C169.398 124.816 167.814 122.608 164.406 122.608C160.902 122.608 158.886 125.104 158.886 129.376V142H152.118V117.328H158.022L158.646 120.4C160.23 118.48 162.486 117.04 166.278 117.04ZM191.952 142.288C184.128 142.288 179.376 137.44 179.376 129.664C179.376 122.032 184.368 117.04 192.192 117.04C198.912 117.04 203.088 120.688 204.048 126.544H196.992C196.416 124.096 194.736 122.56 192.096 122.56C188.544 122.56 186.288 125.488 186.288 129.664C186.288 133.888 188.544 136.768 192.096 136.768C194.736 136.768 196.512 135.184 196.992 132.688H204.096C203.136 138.592 198.672 142.288 191.952 142.288ZM219.857 142.288C211.648 142.288 206.705 137.344 206.705 129.712C206.705 122.032 211.745 117.04 219.377 117.04C226.769 117.04 231.76 121.648 231.857 128.896C231.857 129.616 231.809 130.432 231.665 131.2H213.761V131.536C213.905 135.04 216.161 137.152 219.569 137.152C222.305 137.152 224.225 135.952 224.801 133.648H231.473C230.705 138.448 226.433 142.288 219.857 142.288ZM213.905 126.784H225.041C224.561 123.76 222.497 122.08 219.424 122.08C216.497 122.08 214.289 123.856 213.905 126.784ZM265.075 117.04C270.163 117.04 274.195 119.92 274.195 127.84V142H267.427V128.224C267.427 124.528 266.083 122.608 263.155 122.608C260.227 122.608 258.259 124.768 258.259 128.512V142H251.491V128.224C251.491 124.528 250.147 122.608 247.171 122.608C244.243 122.608 242.323 124.864 242.323 128.56V142H235.555V117.328H241.459L242.083 120.4C243.571 118.48 245.731 117.088 249.331 117.04C252.355 116.992 255.187 118.096 256.723 121.216C258.451 118.576 261.331 117.04 265.075 117.04ZM290.544 142.288C282.336 142.288 277.392 137.344 277.392 129.712C277.392 122.032 282.432 117.04 290.064 117.04C297.456 117.04 302.448 121.648 302.544 128.896C302.544 129.616 302.496 130.432 302.352 131.2H284.448V131.536C284.592 135.04 286.848 137.152 290.256 137.152C292.992 137.152 294.912 135.952 295.488 133.648H302.16C301.392 138.448 297.12 142.288 290.544 142.288ZM284.592 126.784H295.728C295.248 123.76 293.184 122.08 290.112 122.08C287.184 122.08 284.976 123.856 284.592 126.784ZM320.403 117.04C325.731 117.04 330.291 119.872 330.291 128.32V142H323.523V128.992C323.523 124.816 321.939 122.608 318.531 122.608C315.027 122.608 313.011 125.104 313.011 129.376V142H306.243V117.328H312.147L312.771 120.4C314.355 118.48 316.611 117.04 320.403 117.04ZM336.331 134.944V123.04H332.251V117.328H336.331V110.416H343.099V117.328H348.763V123.04H343.099V133.84C343.099 135.568 343.771 136.288 345.547 136.288H348.907V142H343.387C338.683 142 336.331 139.648 336.331 134.944Z" fill="black"/>
</g>
<defs>
<filter id="filter0_d_541_259" x="2.87988" y="105.232" width="346.027" height="45.248" filterUnits="userSpaceOnUse" color-interpolation-filters="sRGB">
<feFlood flood-opacity="0" result="BackgroundImageFix"/>
<feColorMatrix in="SourceAlpha" type="matrix" values="0 0 0 0 0 0 0 0 0 0 0 0 0 0 0 0 0 0 127 0" result="hardAlpha"/>
<feOffset dy="8"/>
<feComposite in2="hardAlpha" operator="out"/>
<feColorMatrix type="matrix" values="0 0 0 0 0 0 0 0 0 0 0 0 0 0 0 0 0 0 0.25 0"/>
<feBlend mode="normal" in2="BackgroundImageFix" result="effect1_dropShadow_541_259"/>
<feBlend mode="normal" in="SourceGraphic" in2="effect1_dropShadow_541_259" result="shape"/>
</filter>
<linearGradient id="paint0_linear_541_259" x1="146" y1="34.9931" x2="471.471" y2="232.777" gradientUnits="userSpaceOnUse">
<stop offset="0.605" stop-color="#04B2BC"/>
<stop offset="0.6051" stop-color="#E1E1E1"/>
</linearGradient>
</defs>
</svg>
