<svg width="85" height="55" viewBox="0 0 85 55" fill="none" xmlns="http://www.w3.org/2000/svg">
<g filter="url(#filter0_d_468_424)">
<path fill-rule="evenodd" clip-rule="evenodd" d="M37.5367 0H14C8.47715 0 4 4.47715 4 10V29.962C4 35.4849 8.47716 39.962 14 39.962H41.2722C46.795 39.962 51.2722 35.4849 51.2722 29.962V11.5576L45.8554 19.0131C45.1372 20.0016 44.2545 20.8001 43.2722 21.3981V29.962C43.2722 31.0666 42.3767 31.962 41.2722 31.962H14C12.8954 31.962 12 31.0666 12 29.962V10C12 8.89543 12.8954 8 14 8H31.7244L37.5367 0Z" fill="url(#paint0_linear_468_424)"/>
</g>
<g filter="url(#filter1_d_468_424)">
<path fill-rule="evenodd" clip-rule="evenodd" d="M47.4633 39.9629H71C76.5228 39.9629 81 35.4857 81 29.9629V10.0009C81 4.47802 76.5228 0.000861172 71 0.000861172H43.7278C38.205 0.000861172 33.7278 4.47801 33.7278 10.0009V28.4053L39.1446 20.9498C39.8628 19.9612 40.7455 19.1628 41.7278 18.5648V10.0009C41.7278 8.89629 42.6233 8.00086 43.7278 8.00086L71 8.00086C72.1046 8.00086 73 8.89631 73 10.0009V29.9629C73 31.0675 72.1046 31.9629 71 31.9629H53.2756L47.4633 39.9629Z" fill="#022778"/>
</g>
<path d="M13.576 52V46.4H14.008V52H13.576ZM15.5859 52H15.1619V46.4H15.5699L18.8819 51.216V46.4H19.3059V52H18.8979L15.5859 47.184V52ZM20.8828 52H20.4588V46.4H20.8668L24.1788 51.216V46.4H24.6028V52H24.1948L20.8828 47.184V52ZM30.7877 49.2C30.7877 50.856 29.7157 52.048 28.1717 52.048C26.6357 52.048 25.5557 50.856 25.5557 49.2C25.5557 47.544 26.6357 46.352 28.1717 46.352C29.7157 46.352 30.7877 47.544 30.7877 49.2ZM26.0037 49.2C26.0037 50.632 26.8917 51.648 28.1717 51.648C29.4597 51.648 30.3477 50.632 30.3477 49.2C30.3477 47.768 29.4597 46.752 28.1717 46.752C26.8917 46.752 26.0037 47.768 26.0037 49.2ZM33.0352 52L30.9392 46.4H31.4032L33.2992 51.48L35.1952 46.4H35.6432L33.5552 52H33.0352Z" fill="black"/>
<path d="M39.1801 48.9479C39.9241 49.0759 40.4681 49.5959 40.4681 50.3719C40.4681 51.2519 39.7001 51.8839 38.5001 51.8839C37.3001 51.8839 36.5321 51.2519 36.5321 50.3719C36.5321 49.6039 37.0761 49.0839 37.8201 48.9479C37.1721 48.8359 36.7001 48.3319 36.7001 47.6439C36.7001 46.7879 37.4121 46.1879 38.5001 46.1879C39.5881 46.1879 40.3001 46.7879 40.3001 47.6439C40.3001 48.3239 39.8281 48.8359 39.1801 48.9479ZM37.1241 47.6439C37.1241 48.2919 37.6841 48.7399 38.5001 48.7399C39.3161 48.7399 39.8761 48.2919 39.8761 47.6439C39.8761 46.9959 39.3241 46.5479 38.5001 46.5479C37.6761 46.5479 37.1241 46.9959 37.1241 47.6439ZM38.5001 51.5239C39.4041 51.5239 40.0361 51.0359 40.0361 50.3399C40.0361 49.6519 39.4041 49.1559 38.5001 49.1559C37.5881 49.1559 36.9641 49.6519 36.9641 50.3399C36.9641 51.0359 37.5961 51.5239 38.5001 51.5239Z" fill="url(#paint1_linear_468_424)"/>
<path d="M46.52 52H44.48V46.4H46.52C48.264 46.4 49.424 47.544 49.424 49.192C49.424 50.832 48.264 52 46.52 52ZM45.68 47.4V51H46.52C47.592 51 48.192 50.256 48.192 49.192C48.192 48.12 47.592 47.4 46.52 47.4H45.68ZM50.1519 52V46.4H51.3519V52H50.1519ZM54.7403 52.048C53.1403 52.048 52.0763 50.92 52.0763 49.2C52.0763 47.48 53.1323 46.352 54.8523 46.352C56.2043 46.352 57.1563 47.184 57.3003 48.392H56.1003C55.9563 47.776 55.5083 47.368 54.8203 47.368C53.8843 47.368 53.3003 48.12 53.3003 49.2C53.3003 50.28 53.8603 51.032 54.8203 51.032C55.4603 51.032 56.1083 50.696 56.2203 49.912V49.84H54.8283V48.888H57.3323V52H56.4923L56.3723 51.328C56.0763 51.72 55.5323 52.048 54.7403 52.048ZM58.2925 52V46.4H59.4925V52H58.2925ZM60.1209 47.432V46.4H64.5609V47.432H62.9369V52H61.7369V47.432H60.1209ZM65.2095 52H63.9695L66.0175 46.4H67.4575L69.4895 52H68.2015L67.7695 50.776H65.6415L65.2095 52ZM66.6975 47.68L65.9615 49.808H67.4415L66.6975 47.68ZM73.4274 52H70.0034V46.4H71.2034V50.968H73.4274V52Z" fill="#022778"/>
<defs>
<filter id="filter0_d_468_424" x="0" y="0" width="55.2715" height="47.9629" filterUnits="userSpaceOnUse" color-interpolation-filters="sRGB">
<feFlood flood-opacity="0" result="BackgroundImageFix"/>
<feColorMatrix in="SourceAlpha" type="matrix" values="0 0 0 0 0 0 0 0 0 0 0 0 0 0 0 0 0 0 127 0" result="hardAlpha"/>
<feOffset dy="4"/>
<feGaussianBlur stdDeviation="2"/>
<feComposite in2="hardAlpha" operator="out"/>
<feColorMatrix type="matrix" values="0 0 0 0 0 0 0 0 0 0 0 0 0 0 0 0 0 0 0.25 0"/>
<feBlend mode="normal" in2="BackgroundImageFix" result="effect1_dropShadow_468_424"/>
<feBlend mode="normal" in="SourceGraphic" in2="effect1_dropShadow_468_424" result="shape"/>
</filter>
<filter id="filter1_d_468_424" x="29.7285" y="0" width="55.2715" height="47.9629" filterUnits="userSpaceOnUse" color-interpolation-filters="sRGB">
<feFlood flood-opacity="0" result="BackgroundImageFix"/>
<feColorMatrix in="SourceAlpha" type="matrix" values="0 0 0 0 0 0 0 0 0 0 0 0 0 0 0 0 0 0 127 0" result="hardAlpha"/>
<feOffset dy="4"/>
<feGaussianBlur stdDeviation="2"/>
<feComposite in2="hardAlpha" operator="out"/>
<feColorMatrix type="matrix" values="0 0 0 0 0 0 0 0 0 0 0 0 0 0 0 0 0 0 0.25 0"/>
<feBlend mode="normal" in2="BackgroundImageFix" result="effect1_dropShadow_468_424"/>
<feBlend mode="normal" in="SourceGraphic" in2="effect1_dropShadow_468_424" result="shape"/>
</filter>
<linearGradient id="paint0_linear_468_424" x1="158" y1="9.50001" x2="-9" y2="11" gradientUnits="userSpaceOnUse">
<stop stop-color="#022778"/>
<stop offset="0.335" stop-color="#022778"/>
<stop offset="0.645" stop-color="#022778"/>
<stop offset="0.85" stop-color="#1394FE"/>
</linearGradient>
<linearGradient id="paint1_linear_468_424" x1="38.2527" y1="52.7084" x2="38.2527" y2="46.3355" gradientUnits="userSpaceOnUse">
<stop stop-color="#022778"/>
<stop offset="0.335" stop-color="#022778"/>
<stop offset="0.415" stop-color="#022778"/>
<stop offset="0.615" stop-color="#1394FE"/>
</linearGradient>
</defs>
</svg>
