<svg width="554" height="450" viewBox="0 0 554 450" fill="none" xmlns="http://www.w3.org/2000/svg">
<path d="M262.666 55.4663C223.6 60.3997 188.666 76.2663 162.133 101.333C138.4 123.733 122.933 148.933 114 180C108.533 199.066 108.133 206.533 112.4 214C115.733 219.866 124.666 225.333 131.066 225.333C144.533 225.333 151.866 218.533 155.333 203.2C158.266 190.133 164.4 169.733 168 161.866C169.466 158.533 173.733 150.666 177.466 144.4C201.2 105.066 239.333 81.1997 286.666 75.9997C302.133 74.2663 317.6 75.733 336.666 80.6663C352.266 84.7997 360 87.9997 373.333 95.733C403.733 113.6 424.133 137.866 437.866 172.266C439.733 177.066 442.933 178.8 444.533 176.133C445.733 174.133 440.4 160.533 433.2 147.2C416.666 116.533 389.733 90.533 357.466 74.133C333.066 61.8663 310.666 56.133 284 55.333C274.8 55.0663 265.2 55.1997 262.666 55.4663ZM129.066 185.066C131.466 195.066 133.466 204.133 133.333 204.933C133.333 208.133 128 212 124 212C118.4 212 114.666 207.866 114.666 201.6C114.666 194.666 122 166.666 123.733 166.666C124.266 166.666 126.666 174.933 129.066 185.066Z" fill="black"/>
<path d="M262.666 55.4663C223.6 60.3997 188.666 76.2663 162.133 101.333C138.4 123.733 122.933 148.933 114 180C108.533 199.066 108.133 206.533 112.4 214C115.733 219.866 124.666 225.333 131.066 225.333C144.533 225.333 151.866 218.533 155.333 203.2C158.266 190.133 164.4 169.733 168 161.866C169.466 158.533 173.733 150.666 177.466 144.4C201.2 105.066 239.333 81.1997 286.666 75.9997C302.133 74.2663 317.6 75.733 336.666 80.6663C352.266 84.7997 360 87.9997 373.333 95.733C403.733 113.6 424.133 137.866 437.866 172.266C439.733 177.066 442.933 178.8 444.533 176.133C445.733 174.133 440.4 160.533 433.2 147.2C416.666 116.533 389.733 90.533 357.466 74.133C333.066 61.8663 310.666 56.133 284 55.333C274.8 55.0663 265.2 55.1997 262.666 55.4663ZM129.066 185.066C131.466 195.066 133.466 204.133 133.333 204.933C133.333 208.133 128 212 124 212C118.4 212 114.666 207.866 114.666 201.6C114.666 194.666 122 166.666 123.733 166.666C124.266 166.666 126.666 174.933 129.066 185.066Z" fill="#2782DB"/>
<path d="M275.6 183.6C273.333 211.866 255.333 231.2 228 234.533C222.8 235.2 218.133 236 217.867 236.4C217.6 236.666 221.467 237.333 226.667 237.733C247.6 239.466 266.133 253.866 272.667 273.2C273.733 276.533 275.2 283.866 275.733 289.333L276.8 299.333L278.267 287.733C279.2 280.8 281.333 273.066 283.333 268.8C291.467 251.466 308.4 239.6 328 237.6L338 236.533L331.333 235.466C313.067 232.8 304.267 229.2 294.8 220.133C285.6 211.466 280.267 200.133 278.267 184.933L276.533 172.666L275.6 183.6Z" fill="#FFCC00"/>
<path d="M300.036 424.867C339.102 419.933 374.036 404.067 400.569 379C424.302 356.6 439.769 331.4 448.702 300.333C454.169 281.267 454.569 273.8 450.302 266.333C446.969 260.467 438.036 255 431.636 255C418.169 255 410.836 261.8 407.369 277.133C404.436 290.2 398.302 310.6 394.702 318.467C393.236 321.8 388.969 329.667 385.236 335.933C361.502 375.267 323.369 399.133 276.036 404.333C260.569 406.067 245.102 404.6 226.036 399.667C210.436 395.533 202.702 392.333 189.369 384.6C158.969 366.733 138.569 342.467 124.836 308.067C122.969 303.267 119.769 301.533 118.169 304.2C116.969 306.2 122.302 319.8 129.502 333.133C146.036 363.8 172.969 389.8 205.236 406.2C229.636 418.467 252.036 424.2 278.702 425C287.902 425.267 297.502 425.133 300.036 424.867ZM433.636 295.267C431.236 285.267 429.236 276.2 429.369 275.4C429.369 272.2 434.702 268.333 438.702 268.333C444.302 268.333 448.036 272.467 448.036 278.733C448.036 285.667 440.702 313.667 438.969 313.667C438.436 313.667 436.036 305.4 433.636 295.267Z" fill="#32ADE6"/>
<path d="M357 122C360 137 372 149 387 152C372 155 360 167 357 182C354 167 342 155 327 152C342 149 354 137 357 122Z" fill="#8ECFED"/>
<path d="M203 299C205 307 211 311 218 314C211 317 205 321 203 329C201 321 195 317 188 314C195 311 201 307 203 299Z" fill="#8ECFED"/>
</svg>
